{"title":"DCs.Legends.of.Tomorrow.S01E01.720p.HDTV.X264-DIMENSION","uid":13275854,"size":1318976178,"categoryP":"video","categoryS":"hd___tv_shows","magnet":"?xt=urn:btih:344282b57c911feee47c2ff53208154751edea9a&amp;dn=DCs.Legends.of.Tomorrow.S01E01.720p.HDTV.X264-DIMENSION&amp;tr=udp%3A%2F%2Ftracker.leechers-paradise.org%3A6969&amp;tr=udp%3A%2F%2Fzer0day.ch%3A1337&amp;tr=udp%3A%2F%2Fopen.demonii.com%3A1337&amp;tr=udp%3A%2F%2Ftracker.coppersurfer.tk%3A6969&amp;tr=udp%3A%2F%2Fexodus.desync.com%3A6969","seeders":1,"leechers":0,"uploader":"TheRival","files":3,"time":1453439065,"description":"Screens: \nhttp://extraimago.com/image/xrI\r\n\r\nDCs.Legends.of.Tomorrow.S01E01.720p.HDTV.X264-DIMENSION\r\nAired 21.01.2016\r\n\r\nPilot:\r\n\r\nIn the year 2166, the immortal villain Vandal Savage is\r\non the verge of his final victory   total chaos and the\r\nutter destruction of humanity. As the world crumbles,\r\nthe Time Master Rip Hunter takes matters into his own\r\nhands; he travels 150 years into the past to assemble a\r\ncarefully selected team of heroes and rogues to stop\r\nhim. Hunter has chosen what seems like an ill-matched\r\ngroup: billionaire inventor Ray Palmer, who has created\r\nan exo-suit with the power to shrink him to miniscule\r\nsize, as the Atom; Sara Lance, the White Canary, a\r\ntrained assassin; Professor Martin Stein and Jefferson\r\nJax  Jackson, who together form the meta-human\r\nFirestorm; Leonard Snart, known as Captain Cold, and\r\nhis partner Mick Rory, AKA Heat Wave, a pair of career\r\ncriminals; and Kendra Saunders and Carter Hall AKA\r\nHawkgirl and Hawkman. Together this unlikely group will\r\nattempt to stop one of the most formidable villains of\r\nall time, while they must learn how to not only be a\r\nteam, but heroes as well.\r\n\r\nVideo\r\nID                                       : 1\r\nFormat                                   : AVC\r\nFormat/Info                              : Advanced Video Codec\r\nFormat profile                           :   \r\nFormat settings, CABAC                   : Yes\r\nFormat settings, ReFrames                : 8 frames\r\nCodec ID                                 : V_MPEG4/ISO/AVC\r\nDuration                                 : 44mn 26s\r\nBit rate                                 : 3 495 Kbps\r\nWidth                                    : 1 280 pixels\r\nHeight                                   : 720 pixels\r\nDisplay aspect ratio                     : 16:9\r\nFrame rate mode                          : Constant\r\nFrame rate                               : 23.976 (24000/1001) fps\r\nColor space                              : YUV\r\nChroma subsampling                       : 4:2:0\r\nBit depth                                : 8 bits\r\nScan type                                : Progressive\r\nBits/(Pixel*Frame)                       : 0.158\r\nStream size                              : 1.08 GiB (88%)\r\nWriting library                          : x264 core 148 r2638 7599210\r\nEncoding settings                        : cabac=1 / ref=8 / deblock=1:-2:-2 / analyse=0x3:0x113 / me=umh / subme=9 / psy=1 / psy_rd=1.00:0.00 / mixed_ref=1 / me_range=24 / chroma_me=1 / trellis=1 / 8x8dct=1 / cqm=0 / deadzone=21,11 / fast_pskip=0 / chroma_qp_offset=-2 / threads=18 / lookahead_threads=2 / sliced_threads=0 / nr=0 / decimate=1 / interlaced=0 / bluray_compat=0 / constrained_intra=0 / bframes=5 / b_pyramid=2 / b_adapt=2 / b_bias=0 / direct=3 / weightb=1 / open_gop=0 / weightp=2 / keyint=250 / keyint_min=23 / scenecut=40 / intra_refresh=0 / rc_lookahead=50 / rc=crf / mbtree=1 / crf=18.0 / qcomp=0.60 / qpmin=0 / qpmax=69 / qpstep=4 / ip_ratio=1.40 / aq=1:1.00\r\nLanguage                                 : English\r\nDefault                                  : No\r\nForced                                   : No\r\n\r\nAudio\r\nID                                       : 2\r\nFormat                                   : AC-3\r\nFormat/Info                              : Audio Coding 3\r\nMode extension                           : CM (complete main)\r\nFormat settings, Endianness              : Big\r\nCodec ID                                 : A_AC3\r\nDuration                                 : 44mn 26s\r\nBit rate mode                            : Constant\r\nBit rate                                 : 384 Kbps\r\nChannel(s)                               : 6 channels\r\nChannel positions                        : Front: L C R, Side: L R, LFE\r\nSampling rate                            : 48.0 KHz\r\nFrame rate                               : 31.250 fps (1536 spf)\r\nCompression mode                         : Lossy\r\nStream size                              : 122 MiB (10%)\r\nDefault                                  : Yes\r\nForced                                   : No","torrent":{"xt":"urn:btih:344282b57c911feee47c2ff53208154751edea9a","amp;dn":"DCs.Legends.of.Tomorrow.S01E01.720p.HDTV.X264-DIMENSION","amp;tr":["udp%3A%2F%2Ftracker.leechers-paradise.org%3A6969","udp%3A%2F%2Fzer0day.ch%3A1337","udp%3A%2F%2Fopen.demonii.com%3A1337","udp%3A%2F%2Ftracker.coppersurfer.tk%3A6969","udp%3A%2F%2Fexodus.desync.com%3A6969"],"infoHash":"344282b57c911feee47c2ff53208154751edea9a","infoHashBuffer":{"type":"Buffer","data":[52,66,130,181,124,145,31,238,228,124,47,245,50,8,21,71,81,237,234,154]},"announce":[],"urlList":[]}}